<svg xmlns="http://www.w3.org/2000/svg" x="0px" y="0px"
width="14" height="14"
viewBox="0 0 172 172"
style=" fill:#000000;"><g fill="none" fill-rule="nonzero" stroke="none" stroke-width="1" stroke-linecap="butt" stroke-linejoin="miter" stroke-miterlimit="10" stroke-dasharray="" stroke-dashoffset="0" font-family="none" font-weight="none" font-size="none" text-anchor="none" style="mix-blend-mode: normal"><path d="M0,172v-172h172v172z" fill="none"></path><g fill="#ffffff"><path d="M3.44,27.52c-1.89469,0 -3.44,1.54531 -3.44,3.44v13.76c0,1.89469 1.54531,3.44 3.44,3.44h27.52v92.88c0,1.90813 1.54531,3.44 3.44,3.44h13.76c1.89469,0 3.44,-1.53187 3.44,-3.44v-92.88h27.52c1.89469,0 3.44,-1.54531 3.44,-3.44v-13.76c0,-1.89469 -1.54531,-3.44 -3.44,-3.44zM99.76,61.92c-1.90812,0 -3.44,1.54531 -3.44,3.44v13.76c0,1.89469 1.53188,3.44 3.44,3.44h24.08v58.48c0,1.90813 1.53188,3.44 3.44,3.44h13.76c1.90813,0 3.44,-1.53187 3.44,-3.44v-58.48h24.08c1.90813,0 3.44,-1.54531 3.44,-3.44v-13.76c0,-1.89469 -1.53187,-3.44 -3.44,-3.44z"></path></g></g></svg>