<svg xmlns="http://www.w3.org/2000/svg" x="0px" y="0px"
width="14" height="14"
viewBox="0 0 172 172"
style=" fill:#000000;"><g fill="none" fill-rule="nonzero" stroke="none" stroke-width="1" stroke-linecap="butt" stroke-linejoin="miter" stroke-miterlimit="10" stroke-dasharray="" stroke-dashoffset="0" font-family="none" font-weight="none" font-size="none" text-anchor="none" style="mix-blend-mode: normal"><path d="M0,172v-172h172v172z" fill="none"></path><g fill="#ffffff"><path d="M10.32,27.52c-0.91375,0 -1.78719,0.36281 -2.43219,1.00781c-0.645,0.645 -1.00781,1.51844 -1.00781,2.43219v59.39375c1.00781,-0.57781 2.19031,-0.91375 3.44,-0.91375h3.44v-55.04h144.48v116.96h-55.04v3.44c0,1.24969 -0.33594,2.43219 -0.91375,3.44h59.39375c0.91375,0 1.78719,-0.36281 2.43219,-1.00781c0.645,-0.645 1.00781,-1.51844 1.00781,-2.43219v-123.84c0,-0.91375 -0.36281,-1.78719 -1.00781,-2.43219c-0.645,-0.645 -1.51844,-1.00781 -2.43219,-1.00781zM123.84,44.72c-1.23625,-0.01344 -2.39187,0.63156 -3.02344,1.70656c-0.61813,1.075 -0.61813,2.39187 0,3.46687c0.63156,1.075 1.78719,1.72 3.02344,1.70656h12.33563l-35.40781,35.40781c-0.90031,0.86 -1.26313,2.15 -0.94063,3.34594c0.30906,1.20938 1.24969,2.15 2.45906,2.45906c1.19594,0.3225 2.48594,-0.04031 3.34594,-0.94063l35.40781,-35.40781v12.33562c-0.01344,1.23625 0.63156,2.39188 1.70656,3.02344c1.075,0.61813 2.39187,0.61813 3.46687,0c1.075,-0.63156 1.72,-1.78719 1.70656,-3.02344v-24.08zM10.32,96.32c-1.89469,0 -3.44,1.54531 -3.44,3.44v55.04c0,1.89469 1.54531,3.44 3.44,3.44h82.56c1.89469,0 3.44,-1.54531 3.44,-3.44v-55.04c0,-1.89469 -1.54531,-3.44 -3.44,-3.44z"></path></g></g></svg>