<svg xmlns="http://www.w3.org/2000/svg" x="0px" y="0px"
width="16" height="16"
viewBox="0 0 172 172"
style=" fill:#000000;"><g fill="none" fill-rule="nonzero" stroke="none" stroke-width="1" stroke-linecap="butt" stroke-linejoin="miter" stroke-miterlimit="10" stroke-dasharray="" stroke-dashoffset="0" font-family="none" font-weight="none" font-size="none" text-anchor="none" style="mix-blend-mode: normal"><path d="M0,172v-172h172v172z" fill="none"></path><g fill="#ffffff"><path d="M20.58625,6.82625c-1.89469,0.04031 -3.41312,1.59906 -3.38625,3.49375v89.44c0,13.26281 10.81719,24.08 24.08,24.08h105.21563l-35.40781,35.40781c-0.90031,0.86 -1.26313,2.15 -0.94063,3.34594c0.30906,1.20938 1.24969,2.15 2.45906,2.45906c1.19594,0.3225 2.48594,-0.04031 3.34594,-0.94063l40.98438,-40.97094c0.24187,-0.20156 0.45687,-0.41656 0.65844,-0.65844l2.06938,-2.08281l-2.08281,-2.09625c-0.18813,-0.22844 -0.40313,-0.44344 -0.63156,-0.63156c-0.01344,0 -0.01344,-0.01344 -0.02687,-0.01344l-40.97094,-40.97094c-0.645,-0.67188 -1.53187,-1.03469 -2.4725,-1.04813c-1.3975,0.01344 -2.64719,0.86 -3.18469,2.15c-0.52406,1.30344 -0.215,2.78156 0.79281,3.7625l35.40781,35.40781h-105.21563c-9.54062,0 -17.2,-7.65937 -17.2,-17.2v-89.44c0.01344,-0.92719 -0.34937,-1.8275 -1.00781,-2.48594c-0.65844,-0.65844 -1.55875,-1.02125 -2.48594,-1.00781z"></path></g></g></svg>