                    <svg xmlns="http://www.w3.org/2000/svg" x="0px" y="0px"
                        width="24" height="24"
                        viewBox="0 0 172 172"
                        style=" fill:#000000;"><g fill="none" fill-rule="nonzero" stroke="none" stroke-width="1" stroke-linecap="butt" stroke-linejoin="miter" stroke-miterlimit="10" stroke-dasharray="" stroke-dashoffset="0" font-family="none" font-weight="none" font-size="none" text-anchor="none" style="mix-blend-mode: normal"><path d="M0,172v-172h172v172z" fill="none"></path><g fill="#ffffff"><path d="M91.73333,17.2c-2.06765,-0.02924 -3.99087,1.05709 -5.03322,2.843c-1.04236,1.78592 -1.04236,3.99474 0,5.78066c1.04236,1.78592 2.96558,2.87225 5.03322,2.843h11.46667c3.17939,0 5.73333,2.55394 5.73333,5.73333v103.2c0,3.17939 -2.55394,5.73333 -5.73333,5.73333h-11.46667c-2.06765,-0.02924 -3.99087,1.05709 -5.03322,2.843c-1.04236,1.78592 -1.04236,3.99474 0,5.78066c1.04236,1.78592 2.96558,2.87225 5.03322,2.843h11.46667c4.40784,0 8.40905,-1.74401 11.46667,-4.51276c3.05762,2.76875 7.05882,4.51276 11.46667,4.51276h11.46667c2.06765,0.02924 3.99087,-1.05709 5.03322,-2.843c1.04236,-1.78592 1.04236,-3.99474 0,-5.78066c-1.04236,-1.78592 -2.96558,-2.87225 -5.03322,-2.843h-11.46667c-3.17939,0 -5.73333,-2.55394 -5.73333,-5.73333v-103.2c0,-3.17939 2.55394,-5.73333 5.73333,-5.73333h11.46667c2.06765,0.02924 3.99087,-1.05709 5.03322,-2.843c1.04236,-1.78592 1.04236,-3.99474 0,-5.78066c-1.04236,-1.78592 -2.96558,-2.87225 -5.03322,-2.843h-11.46667c-4.40784,0 -8.40905,1.74401 -11.46667,4.51276c-3.05762,-2.76875 -7.05882,-4.51276 -11.46667,-4.51276zM22.93333,45.86667c-3.1663,0.00032 -5.73302,2.56703 -5.73333,5.73333v68.8c0.00032,3.1663 2.56703,5.73302 5.73333,5.73333h74.53333v-11.46667h-68.8v-57.33333h68.8v-11.46667zM131.86667,45.86667v11.46667h11.46667v57.33333h-11.46667v11.46667h17.2c3.1663,-0.00032 5.73302,-2.56703 5.73333,-5.73333v-68.8c-0.00032,-3.1663 -2.56703,-5.73302 -5.73333,-5.73333zM40.13333,68.8v34.4h45.86667v-34.4z"></path></g></g>
                    </svg>