<svg xmlns="http://www.w3.org/2000/svg" x="0px" y="0px"
                        width="14" height="14"
                        viewBox="0 0 172 172"
                        style=" fill:#000000;"><g fill="none" fill-rule="nonzero" stroke="none" stroke-width="1" stroke-linecap="butt" stroke-linejoin="miter" stroke-miterlimit="10" stroke-dasharray="" stroke-dashoffset="0" font-family="none" font-weight="none" font-size="none" text-anchor="none" style="mix-blend-mode: normal"><path d="M0,172v-172h172v172z" fill="none"></path><g fill="#ffffff"><path d="M86,28.66667c-57.33333,0 -78.83333,57.33333 -78.83333,57.33333c0,0 21.5,57.33333 78.83333,57.33333c57.33333,0 78.83333,-57.33333 78.83333,-57.33333c0,0 -21.5,-57.33333 -78.83333,-57.33333zM86,43c37.81133,0 56.93626,30.58084 63.12826,42.97201c-6.19917,12.30517 -25.46742,43.02799 -63.12826,43.02799c-37.81133,0 -56.93626,-30.58084 -63.12826,-42.97201c6.20633,-12.30517 25.46742,-43.02799 63.12826,-43.02799zM86,57.33333c-15.83117,0 -28.66667,12.8355 -28.66667,28.66667c0,15.83117 12.8355,28.66667 28.66667,28.66667c15.83117,0 28.66667,-12.8355 28.66667,-28.66667c0,-15.83117 -12.8355,-28.66667 -28.66667,-28.66667zM86,71.66667c7.91917,0 14.33333,6.41417 14.33333,14.33333c0,7.91917 -6.41417,14.33333 -14.33333,14.33333c-7.91917,0 -14.33333,-6.41417 -14.33333,-14.33333c0,-7.91917 6.41417,-14.33333 14.33333,-14.33333z"></path></g></g>
                    </svg>