                    <svg xmlns="http://www.w3.org/2000/svg" x="0px" y="0px"
                        width="24" height="24"
                        viewBox="0 0 172 172"
                        style=" fill:#000000;"><g fill="none" fill-rule="nonzero" stroke="none" stroke-width="1" stroke-linecap="butt" stroke-linejoin="miter" stroke-miterlimit="10" stroke-dasharray="" stroke-dashoffset="0" font-family="none" font-weight="none" font-size="none" text-anchor="none" style="mix-blend-mode: normal"><path d="M0,172v-172h172v172z" fill="none"></path><g fill="#ffffff"><path d="M0,17.2v137.6h172v-137.6zM6.88,24.08h158.24v89.44h-36.73812l-24.08,-17.2h-20.3175l-14.05563,-14.05562l-16.74312,3.35937l-14.80813,-22.22562l-31.4975,31.4975zM129,44.72c-8.50594,0 -15.48,6.97406 -15.48,15.48c0,8.50594 6.97406,15.48 15.48,15.48c8.50594,0 15.48,-6.97406 15.48,-15.48c0,-8.50594 -6.97406,-15.48 -15.48,-15.48zM129,51.6c4.78375,0 8.6,3.81625 8.6,8.6c0,4.78375 -3.81625,8.6 -8.6,8.6c-4.78375,0 -8.6,-3.81625 -8.6,-8.6c0,-4.78375 3.81625,-8.6 8.6,-8.6zM37.3025,74.20188l12.71188,19.05437l17.65687,-3.52062l13.46438,13.46437h20.9625l24.08,17.2h38.94187v27.52h-158.24v-43.29562z"></path></g></g>
                   </svg>