<svg xmlns="http://www.w3.org/2000/svg" x="0px" y="0px"
width="24" height="24"
viewBox="0 0 172 172"
style=" fill:#000000;"><g fill="none" fill-rule="nonzero" stroke="none" stroke-width="1" stroke-linecap="butt" stroke-linejoin="miter" stroke-miterlimit="10" stroke-dasharray="" stroke-dashoffset="0" font-family="none" font-weight="none" font-size="none" text-anchor="none" style="mix-blend-mode: normal"><path d="M0,172v-172h172v172z" fill="none"></path><g fill="#ffffff"><path d="M127.28,13.77344c-7.92834,-0.00043 -15.8592,3.0214 -21.8964,9.05688l-17.2,17.2c-8.57248,8.57248 -11.02262,20.95153 -7.4175,31.73937l12.35578,-12.35578c0.516,-3.53288 2.07631,-6.94068 4.79047,-9.65484l17.2,-17.2c3.354,-3.35056 7.76445,-5.03234 12.16765,-5.03234c4.4032,0 8.81038,1.67834 12.16094,5.03234c6.70456,6.708 6.70456,17.61731 0,24.32187l-17.2,17.2c-2.71416,2.71416 -6.11852,4.27103 -9.65484,4.79047l-12.3625,12.3625c3.19232,1.0664 6.51633,1.63266 9.84969,1.63266c7.9292,0 15.8592,-3.01968 21.8964,-9.05688l17.2,-17.2c12.0744,-12.07096 12.07096,-31.70841 0,-43.77937c-6.0372,-6.03376 -13.96135,-9.05644 -21.88969,-9.05688zM106.50563,58.41281c-1.78741,0.05326 -3.48388,0.80028 -4.73,2.08281l-41.28,41.28c-1.79734,1.72562 -2.52135,4.28808 -1.89282,6.69912c0.62853,2.41104 2.5114,4.29391 4.92245,4.92245c2.41104,0.62853 4.9735,-0.09548 6.69912,-1.89282l41.28,-41.28c2.03483,-1.97794 2.64666,-5.00221 1.54067,-7.61556c-1.10599,-2.61334 -3.7029,-4.27965 -6.53941,-4.196zM63.46531,79.20063c-8.43515,-0.42925 -17.00306,2.55361 -23.435,8.98297l-17.2,17.2c-12.07096,12.07096 -12.07096,31.71513 0,43.78609c6.0372,6.03376 13.96393,9.05016 21.88969,9.05016c7.92576,0 15.85249,-3.01968 21.88969,-9.05688l17.2,-17.2c8.57248,-8.57248 11.02934,-20.95153 7.42422,-31.73937l-12.3625,12.3625c-0.516,3.53288 -2.07631,6.94068 -4.79047,9.65484l-17.2,17.2c-6.70456,6.708 -17.61731,6.708 -24.32187,0c-6.70456,-6.708 -6.70456,-17.61731 0,-24.32187l17.2,-17.2c2.71416,-2.71416 6.12196,-4.27775 9.65484,-4.79719l12.35578,-12.35578c-2.69696,-0.90128 -5.49266,-1.42239 -8.30437,-1.56547z"></path></g></g></svg>