                    <svg xmlns="http://www.w3.org/2000/svg" x="0px" y="0px"
                        width="24" height="24"
                        viewBox="0 0 172 172"
                        style=" fill:#000000;"><g fill="none" fill-rule="nonzero" stroke="none" stroke-width="1" stroke-linecap="butt" stroke-linejoin="miter" stroke-miterlimit="10" stroke-dasharray="" stroke-dashoffset="0" font-family="none" font-weight="none" font-size="none" text-anchor="none" style="mix-blend-mode: normal"><path d="M0,172v-172h172v172z" fill="none"></path><g fill="#ffffff"><path d="M10.32,24.08c-1.89469,0 -3.44,1.54531 -3.44,3.44v13.76c0,1.89469 1.54531,3.44 3.44,3.44h13.76c1.89469,0 3.44,-1.54531 3.44,-3.44v-13.76c0,-1.89469 -1.54531,-3.44 -3.44,-3.44zM40.635,27.52c-3.80281,0.17469 -6.73219,3.39969 -6.5575,7.2025c0.17469,3.80281 3.39969,6.73219 7.2025,6.5575h116.96c2.48594,0.04031 4.78375,-1.26312 6.03344,-3.41312c1.26313,-2.13656 1.26313,-4.79719 0,-6.93375c-1.24969,-2.15 -3.5475,-3.45344 -6.03344,-3.41313h-116.96c-0.215,-0.01344 -0.43,-0.01344 -0.645,0zM10.32,58.48c-1.89469,0 -3.44,1.54531 -3.44,3.44v13.76c0,1.89469 1.54531,3.44 3.44,3.44h13.76c1.89469,0 3.44,-1.54531 3.44,-3.44v-13.76c0,-1.89469 -1.54531,-3.44 -3.44,-3.44zM40.635,61.92c-3.80281,0.17469 -6.73219,3.39969 -6.5575,7.2025c0.17469,3.80281 3.39969,6.73219 7.2025,6.5575h116.96c2.48594,0.04031 4.78375,-1.26312 6.03344,-3.41312c1.26313,-2.13656 1.26313,-4.79719 0,-6.93375c-1.24969,-2.15 -3.5475,-3.45344 -6.03344,-3.41313h-116.96c-0.215,-0.01344 -0.43,-0.01344 -0.645,0zM10.32,92.88c-1.89469,0 -3.44,1.53188 -3.44,3.44v13.76c0,1.90813 1.54531,3.44 3.44,3.44h13.76c1.89469,0 3.44,-1.53187 3.44,-3.44v-13.76c0,-1.90812 -1.54531,-3.44 -3.44,-3.44zM40.635,96.32c-3.80281,0.17469 -6.73219,3.39969 -6.5575,7.2025c0.17469,3.80281 3.39969,6.73219 7.2025,6.5575h116.96c2.48594,0.04031 4.78375,-1.26312 6.03344,-3.41312c1.26313,-2.13656 1.26313,-4.79719 0,-6.93375c-1.24969,-2.15 -3.5475,-3.45344 -6.03344,-3.41313h-116.96c-0.215,-0.01344 -0.43,-0.01344 -0.645,0zM10.32,127.28c-1.89469,0 -3.44,1.53188 -3.44,3.44v13.76c0,1.90813 1.54531,3.44 3.44,3.44h13.76c1.89469,0 3.44,-1.53187 3.44,-3.44v-13.76c0,-1.90812 -1.54531,-3.44 -3.44,-3.44zM40.635,130.72c-3.80281,0.17469 -6.73219,3.39969 -6.5575,7.2025c0.17469,3.80281 3.39969,6.73219 7.2025,6.5575h116.96c2.48594,0.04031 4.78375,-1.26312 6.03344,-3.41312c1.26313,-2.13656 1.26313,-4.79719 0,-6.93375c-1.24969,-2.15 -3.5475,-3.45344 -6.03344,-3.41313h-116.96c-0.215,-0.01344 -0.43,-0.01344 -0.645,0z"></path></g></g>
                    </svg>