<svg id="Слой_1" data-name="Слой 1" xmlns="http://www.w3.org/2000/svg" xmlns:xlink="http://www.w3.org/1999/xlink" viewBox="0 0 14.02 16.82"><defs><style>.cls-1{fill:none;}.cls-2{clip-path:url(#clip-path);}.cls-3{fill:#fff;}</style><clipPath id="clip-path" transform="translate(-2.5 -2)"><rect class="cls-1" width="20" height="20"/></clipPath></defs><title>logo</title><g class="cls-2"><path id="Exclusion_1" data-name="Exclusion 1" class="cls-3" d="M15.76,18.82a2.36,2.36,0,0,1-1.1-.34,3.32,3.32,0,0,1-.85-.59C13.6,17.62,13,16.67,12,15H13.9l-.13-.22c-1-1.68-1.67-2.79-2-3.3a.58.58,0,0,1-.12-.25c0-.08.1-.15.28-.22a5.77,5.77,0,0,0,2.14-1.28A2.54,2.54,0,0,0,14.67,8,3.33,3.33,0,0,0,13.41,5.3a5,5,0,0,0-3.26-1,12.67,12.67,0,0,0-1.5.14c-.66.09-1.05.14-1.19.14a6.85,6.85,0,0,1-.78-.07,4.76,4.76,0,0,0-.84-.07c-.53,0-.8.15-.8.44s.23.42.7.45c.67,0,1,.31,1,.8V15H2.5V2h13V15H13.9c.9,1.54,1.4,2.36,1.46,2.43a1.26,1.26,0,0,0,.52.25,1.2,1.2,0,0,1,.53.29.51.51,0,0,1,.11.31.45.45,0,0,1-.29.38A1,1,0,0,1,15.76,18.82Zm-6.31-.06a2.53,2.53,0,0,1-.93-.22,2.59,2.59,0,0,0-.87-.22,2.91,2.91,0,0,0-.82.21,2.53,2.53,0,0,1-.86.21c-.6,0-.9-.19-.9-.56a.37.37,0,0,1,.15-.31,1.51,1.51,0,0,1,.73-.1,1,1,0,0,0,.57-.16.43.43,0,0,0,.22-.38V15H8.46v2a.62.62,0,0,0,.28.52,1.24,1.24,0,0,0,.73.2,1.26,1.26,0,0,1,.66.12.44.44,0,0,1,.16.37.49.49,0,0,1-.2.39,1.09,1.09,0,0,1-.64.15ZM12,15H8.46V6.05a1.24,1.24,0,0,1,.06-.47.54.54,0,0,1,.31-.3,1.93,1.93,0,0,1,.79-.13A3,3,0,0,1,11.87,6a2.66,2.66,0,0,1,.81,1.76A2.55,2.55,0,0,1,12,9.71a2.47,2.47,0,0,1-1.79.69l-.44,0-.27,0c-.33,0-.51.14-.51.43A.59.59,0,0,0,9,11a.42.42,0,0,0,.17.1,2.58,2.58,0,0,1,1,1c.1.14.49.77,1.13,1.83L12,15Z" transform="translate(-2.5 -2)"/></g></svg>