    	            <svg xmlns="http://www.w3.org/2000/svg" x="0px" y="0px"
                        width="14" height="14"
                        viewBox="0 0 172 172"
                        style=" fill:#000000;"><g fill="none" fill-rule="nonzero" stroke="none" stroke-width="1" stroke-linecap="butt" stroke-linejoin="miter" stroke-miterlimit="10" stroke-dasharray="" stroke-dashoffset="0" font-family="none" font-weight="none" font-size="none" text-anchor="none" style="mix-blend-mode: normal"><path d="M0,172v-172h172v172z" fill="none"></path><g fill="#ffffff"><path d="M100.35125,20.66688c-18.56016,0.00688 -37.12144,-0.03492 -55.69172,0.02016c-6.35721,0.01807 -11.32275,0.85585 -15.12391,3.87672c-3.80116,3.02086 -5.73653,7.67075 -7.17562,13.88094c-7.19059,31.00899 -14.32548,62.03663 -21.41937,93.06813c-1.39679,6.09743 -1.5472,11.20755 1.505,14.97609c3.0522,3.76854 8.09989,4.7618 14.55281,4.78375c37.13277,0.12387 74.26623,0.11011 111.39688,0c5.73971,-0.01686 10.57205,-1.15426 14.28406,-4.0514c3.71201,-2.89714 5.93583,-7.29977 7.18235,-12.7589c7.21863,-31.66148 14.34343,-63.34927 21.31188,-95.07031c1.27329,-5.80075 1.37028,-10.64858 -1.55203,-14.22359c-2.92231,-3.57502 -7.66804,-4.46423 -13.56516,-4.48812c-18.58182,-0.07575 -37.14887,-0.02032 -55.70515,-0.01344zM100.35797,27.54688c18.56819,-0.00688 37.12203,-0.06219 55.67156,0.01344c5.1384,0.02081 7.46687,0.98663 8.26406,1.96187c0.79719,0.97524 1.26502,3.37007 0.16125,8.39844c-6.96311,31.69666 -14.09003,63.37042 -21.30516,95.01656c-1.03762,4.53987 -2.57517,7.1945 -4.70312,8.85531c-2.12911,1.66172 -5.21592,2.58597 -10.07141,2.60015c-37.11832,0.11008 -74.24037,0.12381 -111.35656,0c-5.68354,-0.01934 -8.30126,-1.09028 -9.22484,-2.23062c-0.92358,-1.14034 -1.36214,-3.7871 -0.14109,-9.11735c7.09266,-31.0261 14.21733,-62.04752 21.40594,-93.04797c1.29914,-5.60621 2.78915,-8.48074 4.75688,-10.04453c1.96772,-1.56379 5.11951,-2.36883 10.86422,-2.38516c18.54732,-0.05501 37.10708,-0.01328 55.67828,-0.02016zM66.28719,37.86015c-2.18268,-0.16297 -4.41696,0.74605 -6.665,2.74125c-4.55112,4.03856 -3.34072,8.01031 0.45016,12.10047c8.28008,8.94056 15.9358,17.68553 24.295,27.06985c1.43448,1.5996 3.17598,3.59625 5.2675,5.95953c-1.58928,1.1868 -4.10129,3.12164 -5.98641,4.52172c-13.52264,10.06888 -27.1037,20.06746 -40.7089,30.01938c-3.80464,2.78296 -7.19439,5.73889 -3.52735,10.70969c3.32648,4.5064 7.25389,3.74331 11.36813,0.69203c18.31112,-13.5708 36.63863,-27.12198 55.07359,-40.52078c4.80224,-3.4916 5.81989,-6.69236 1.45797,-11.40172c-11.6788,-12.61104 -23.15899,-25.40962 -34.64859,-38.1961c-2.06228,-2.2962 -4.19342,-3.53234 -6.3761,-3.69531zM78.26,116.96c-3.87,0 -6.02,3.44 -6.02,6.88c0,3.44 2.15,6.88 6.02,6.88h32.68c3.87,0 6.02,-3.44 6.02,-6.88c0,-3.44 -2.15,-6.88 -6.02,-6.88z"></path></g></g>
                   </svg>