<svg xmlns="http://www.w3.org/2000/svg" x="0px" y="0px"
width="16" height="16"
viewBox="0 0 172 172"
style=" fill:#000000;"><g fill="none" fill-rule="nonzero" stroke="none" stroke-width="1" stroke-linecap="butt" stroke-linejoin="miter" stroke-miterlimit="10" stroke-dasharray="" stroke-dashoffset="0" font-family="none" font-weight="none" font-size="none" text-anchor="none" style="mix-blend-mode: normal"><path d="M0,172v-172h172v172z" fill="none"></path><g fill="#ffffff"><path d="M107.15063,-0.215l-65.45406,65.45406c-1.00781,0.99437 -1.29,2.51281 -0.72563,3.80281c5.805,13.2225 10.22594,29.9925 7.32344,32.895c-6.47688,6.47687 -12.88656,9.12406 -19.08125,11.69062c-5.09281,2.10969 -9.91688,4.11188 -13.82719,8.02219c-13.18219,13.18219 -20.70719,35.05844 -10.41406,45.365c3.14437,3.13094 7.64594,4.78375 13.04781,4.78375c10.41406,0 23.09906,-5.95281 32.33063,-15.18437c4.3,-4.3 7.45781,-10.965 10.52156,-17.40156c2.82187,-5.92594 5.72437,-12.04 9.17781,-15.49344c0.86,-0.84656 2.55313,-1.29 4.93156,-1.29c10.46781,0 27.64094,8.45219 27.81563,8.53281c1.33031,0.65844 2.91594,0.40312 3.96406,-0.645l18.35563,-18.36906l29.42812,-29.42813c0.13438,-0.1075 0.30906,-0.25531 0.38969,-0.33594c0.04031,-0.04031 0.05375,-0.1075 0.09406,-0.14781l17.18656,-17.18656zM24.08,154.8c-3.80281,0 -6.88,-3.07719 -6.88,-6.88c0,-3.78937 3.07719,-6.88 6.88,-6.88c3.80281,0 6.88,3.09063 6.88,6.88c0,3.80281 -3.07719,6.88 -6.88,6.88zM125.11656,102.21906l-55.33563,-55.33563l9.86313,-9.86312c0.5375,1.65281 1.51844,3.25187 3.01,4.75687c6.43656,6.42313 17.67031,-0.20156 19.86062,-1.59906c7.75344,-4.93156 11.08594,-4.81063 11.395,-4.63594c0.47031,0.9675 0.17469,4.12531 -3.84312,13.62563l-0.26875,0.63156c-3.46688,8.22375 -0.25531,13.16875 1.94844,15.39937c3.655,3.64156 8.74781,2.365 12.83281,1.33031c3.655,-0.91375 6.14094,-1.42438 7.35031,-0.215c1.49156,1.49156 0.51062,5.21375 -0.36281,8.4925c-1.075,4.09844 -2.19031,8.31781 0.69875,11.22031c1.8275,1.8275 4.01781,2.60687 6.28875,2.75469z"></path></g></g></svg>