<svg xmlns="http://www.w3.org/2000/svg" x="0px" y="0px"
width="16" height="16"
viewBox="0 0 172 172"
style=" fill:#000000;"><g fill="none" fill-rule="nonzero" stroke="none" stroke-width="1" stroke-linecap="butt" stroke-linejoin="miter" stroke-miterlimit="10" stroke-dasharray="" stroke-dashoffset="0" font-family="none" font-weight="none" font-size="none" text-anchor="none" style="mix-blend-mode: normal"><path d="M0,172v-172h172v172z" fill="none"></path><g fill="#ffffff"><path d="M75.68,17.2c-1.42437,0 -2.60687,0.92719 -3.1175,2.2575l-42.0325,110.08c-0.40312,1.06156 -0.3225,2.19031 0.3225,3.1175c0.645,0.92719 1.77375,1.505 2.9025,1.505h19.78c1.46469,0 2.74125,-0.88687 3.225,-2.2575l9.46,-26.875h38.8075l9.46,26.875c0.48375,1.37063 1.76031,2.2575 3.225,2.2575h20.5325c1.12875,0 2.2575,-0.56437 2.9025,-1.505c0.645,-0.92719 0.72563,-2.05594 0.3225,-3.1175l-42.14,-110.08c-0.51062,-1.33031 -1.80062,-2.2575 -3.225,-2.2575zM85.785,49.45l11.825,34.0775h-23.7575zM34.9375,144.48c-1.89469,0 -3.44,1.53188 -3.44,3.44v20.64c0,1.90813 1.54531,3.44 3.44,3.44h103.2c1.90813,0 3.44,-1.53187 3.44,-3.44v-20.64c0,-1.90812 -1.53187,-3.44 -3.44,-3.44z"></path></g></g></svg>