<svg xmlns="http://www.w3.org/2000/svg" x="0px" y="0px"
width="16" height="16"
viewBox="0 0 172 172"
style=" fill:#000000;"><g fill="none" fill-rule="nonzero" stroke="none" stroke-width="1" stroke-linecap="butt" stroke-linejoin="miter" stroke-miterlimit="10" stroke-dasharray="" stroke-dashoffset="0" font-family="none" font-weight="none" font-size="none" text-anchor="none" style="mix-blend-mode: normal"><path d="M0,172v-172h172v172z" fill="none"></path><g fill="#ffffff"><path d="M69.46154,0c-3.97956,0 -7.98497,2.63582 -9.30288,6.61538h-7.23558c-7.28726,0 -13.23077,5.94351 -13.23077,13.23077h-13.23077c-11.24099,0 -19.84615,8.60517 -19.84615,19.84615v99.23077c0,11.24099 8.60517,19.84615 19.84615,19.84615h32.45673c-1.98978,-3.97956 -2.6875,-8.60517 -2.6875,-13.23077v-6.61538h-29.76923v-99.23077h15.29808c1.98978,3.97957 6.53786,6.61538 11.16346,6.61538h33.07692c4.6256,0 9.17368,-2.63581 11.16346,-6.61538h15.29808v9.92308h19.84615v-9.92308c0,-11.24099 -8.60517,-19.84615 -19.84615,-19.84615h-13.23077c0,-7.28726 -5.94351,-13.23077 -13.23077,-13.23077h-7.23558c-1.31791,-3.97956 -5.32331,-6.61538 -9.30288,-6.61538zM52.92308,19.84615h33.07692v13.23077h-33.07692zM92.61538,59.53846c-14.54868,0 -26.46154,11.91286 -26.46154,26.46154v59.53846c0,14.54868 11.91286,26.46154 26.46154,26.46154h46.30769c14.54868,0 26.46154,-11.91286 26.46154,-26.46154v-59.53846c0,-14.54868 -11.91286,-26.46154 -26.46154,-26.46154zM92.61538,72.76923h46.30769c7.28726,0 13.23077,5.94351 13.23077,13.23077v59.53846c0,7.28726 -5.94351,13.23077 -13.23077,13.23077h-46.30769c-7.28726,0 -13.23077,-5.94351 -13.23077,-13.23077v-59.53846c0,-7.28726 5.94351,-13.23077 13.23077,-13.23077zM92.61538,99.23077v13.23077h46.30769v-13.23077zM92.61538,125.69231v13.23077h46.30769v-13.23077z"></path></g></g></svg>