<svg xmlns="http://www.w3.org/2000/svg" x="0px" y="0px"
width="20" height="20"
viewBox="0 0 172 172"
style=" fill:#000000;"><g fill="none" fill-rule="nonzero" stroke="none" stroke-width="1" stroke-linecap="butt" stroke-linejoin="miter" stroke-miterlimit="10" stroke-dasharray="" stroke-dashoffset="0" font-family="none" font-weight="none" font-size="none" text-anchor="none" style="mix-blend-mode: normal"><path d="M0,172v-172h172v172z" fill="none"></path><g fill="#ffffff"><path d="M102.16531,161.68c-0.41656,0 -0.83313,-0.08062 -1.23625,-0.22844c-0.86,-0.33594 -1.54531,-0.99438 -1.92156,-1.84094l-20.07562,-46.41313l-24.98031,23.47531c-0.99438,0.94062 -2.45906,1.1825 -3.72219,0.645c-1.24969,-0.5375 -2.06938,-1.78719 -2.06938,-3.15781v-113.52c0,-1.37062 0.80625,-2.60687 2.06938,-3.15781c1.24969,-0.5375 2.71437,-0.29562 3.72219,0.645l82.56,77.05063c0.99437,0.92719 1.34375,2.365 0.90031,3.64156c-0.44344,1.29 -1.59906,2.19031 -2.95625,2.31125l-35.03156,3.01l21.00281,45.795c0.37625,0.81969 0.41656,1.77375 0.09406,2.63375c-0.3225,0.86 -0.95406,1.54531 -1.78719,1.92156l-15.14406,6.88c-0.45687,0.20156 -0.92719,0.30906 -1.42437,0.30906z"></path></g></g></svg>