                    <svg xmlns="http://www.w3.org/2000/svg" x="0px" y="0px"
                        width="24" height="24"
                        viewBox="0 0 172 172"
                        style=" fill:#000000;"><g fill="none" fill-rule="nonzero" stroke="none" stroke-width="1" stroke-linecap="butt" stroke-linejoin="miter" stroke-miterlimit="10" stroke-dasharray="" stroke-dashoffset="0" font-family="none" font-weight="none" font-size="none" text-anchor="none" style="mix-blend-mode: normal"><path d="M0,172v-172h172v172z" fill="none"></path><g fill="#ffffff"><path d="M37.84,13.76c-2.06937,0 -3.44,1.37063 -3.44,3.44v13.76c0,2.06938 1.37063,3.44 3.44,3.44h37.84v92.88c0,2.06938 1.37063,3.44 3.44,3.44h13.76c2.06938,0 3.44,-1.37062 3.44,-3.44v-92.88h37.84c2.06938,0 3.44,-1.37062 3.44,-3.44v-13.76c0,-2.06937 -1.37062,-3.44 -3.44,-3.44zM37.77281,123.79969c-0.90031,0.02688 -1.74688,0.40313 -2.365,1.04813l-16.81031,16.82375c-0.67187,0.47031 -1.14219,1.1825 -1.33031,1.97531c-0.38969,1.43781 0.20156,2.95625 1.43781,3.77594l16.70281,16.68937c0.86,0.90031 2.15,1.26313 3.34594,0.94063c1.20938,-0.30906 2.15,-1.24969 2.45906,-2.45906c0.3225,-1.19594 -0.04031,-2.48594 -0.94063,-3.34594l-11.32781,-11.32781h115.83125l-11.32781,11.32781c-0.90031,0.86 -1.26313,2.15 -0.94063,3.34594c0.30906,1.20938 1.24969,2.15 2.45906,2.45906c1.19594,0.3225 2.48594,-0.04031 3.34594,-0.94063l16.70281,-16.71625c1.20938,-0.77937 1.78719,-2.23062 1.46469,-3.62812c-0.16125,-0.86 -0.65844,-1.59906 -1.35719,-2.10969l-16.81031,-16.81031c-0.645,-0.67188 -1.53187,-1.03469 -2.4725,-1.04813c-1.3975,0.01344 -2.64719,0.86 -3.18469,2.15c-0.52406,1.30344 -0.215,2.78156 0.79281,3.7625l11.32781,11.32781h-115.83125l11.32781,-11.32781c1.02125,-0.99437 1.31688,-2.49937 0.76594,-3.80281c-0.55094,-1.31688 -1.84094,-2.15 -3.26531,-2.10969z"></path></g></g>
                   </svg>